Dirty Shary (1985)

Cover: 
http://imagebb.org/view.php?filename=492vc5444180lo.jpg

Preview: 
http://imagebb.org/view.php?filename=227Dirty_Shary_s.jpg

Info:
Dirty Shary
The daring and violent female detective, DIRTY SHARY, investigates a case of white slavery. In order to solve the case, she must infiltrate a bordello and pretend she’s a prostitute, naturally being unable to say no to any customer, for authenticity’s sake. A classic film, this is not one to miss.

Actresses

Beverly Bliss
Bunny Bleu
Christy Canyon
Colleen Brennan [Bald]
Heather Wayne

Actors

Billy Dee
Dan T. Mann
Dino Alexander
Steve Drake

Scene 1. Christy Canyon, Steve Drake
Scene 2. Beverly Bliss, Dino Alexander
Scene 3. Bunny Bleu, Steve Drake
Scene 4. Billy Dee, Heather Wayne
Scene 5. Colleen Brennan, Dino Alexander
Scene 6. Christy Canyon, Dan T. Mann

Format                           : AVI
Format/Info                      : Audio Video Interleave
File size                        : 712 MiB
Duration                         : 1h 11mn
Overall bit rate                 : 1 388 Kbps
Movie name                       : Dirty Shary (1985)
Writing application              : VirtualDubMod 1.5.10.2 (build 2540/release)
Copyright                        : pornotalk.org

Video
ID                               : 0
Format                           : MPEG-4 Visual
Format profile                   : Advanced Simple@L5
Format settings, BVOP            : 1
Format settings, QPel            : No
Format settings, GMC             : No warppoints
Format settings, Matrix          : Custom
Codec ID                         : XVID
Codec ID/Hint                    : XviD
Duration                         : 1h 11mn
Bit rate                         : 1 249 Kbps
Width                            : 576 pixels
Height                           : 432 pixels
Display aspect ratio             : 4:3
Frame rate                       : 29.970 fps
Color space                      : YUV
Chroma subsampling               : 4:2:0
Bit depth                        : 8 bits
Scan type                        : Progressive
Compression mode                 : Lossy
Bits/(Pixel*Frame)               : 0.167
Stream size                      : 640 MiB (90%)
Writing library                  : XviD 1.2.0.dev47 (UTC 2006-11-01)

Audio
ID                               : 1
Format                           : MPEG Audio
Format version                   : Version 1
Format profile                   : Layer 3
Mode                             : Joint stereo
Mode extension                   : MS Stereo
Codec ID                         : 55
Codec ID/Hint                    : MP3
Duration                         : 1h 11mn
Bit rate mode                    : Constant
Bit rate                         : 128 Kbps
Channel(s)                       : 2 channels
Sampling rate                    : 48.0 KHz
Compression mode                 : Lossy
Stream size                      : 65.6 MiB (9%)
Alignment                        : Aligned on interleaves
Interleave, duration             : 33 ms (1.00 video frame)
Interleave, preload duration     : 504 ms


